<?xml version="1.0" standalone="no"?>
<!DOCTYPE svg PUBLIC "-//W3C//DTD SVG 20010904//EN"
 "http://www.w3.org/TR/2001/REC-SVG-20010904/DTD/svg10.dtd">
<svg version="1.0" xmlns="http://www.w3.org/2000/svg"
 width="134.000000pt" height="50.000000pt" viewBox="0 0 134.000000 50.000000"
 preserveAspectRatio="xMidYMid meet">

<g transform="translate(0.000000,50.000000) scale(0.100000,-0.100000)"
fill="#000000" stroke="none">
<path d="M17 443 c-4 -3 -7 -97 -7 -209 0 -175 2 -203 16 -208 9 -3 296 -6
638 -6 470 0 625 3 634 12 13 13 18 371 6 402 -6 14 -72 16 -643 16 -351 0
-641 -3 -644 -7z m895 -57 c60 -13 95 -127 69 -223 -28 -104 -167 -130 -221
-41 -30 50 -28 172 3 219 22 34 77 61 107 54 8 -2 27 -6 42 -9z m-752 -114 c0
-125 8 -149 42 -131 16 9 18 23 18 124 l0 114 34 7 c19 3 39 3 45 -1 14 -8 14
-188 1 -237 -15 -52 -52 -78 -109 -78 -93 0 -121 47 -121 204 0 114 -1 112 63
115 l27 1 0 -118z m370 103 c39 -20 49 -68 22 -104 l-19 -26 23 -18 c50 -37
38 -113 -21 -141 -43 -21 -134 -21 -163 0 -21 14 -22 22 -22 141 0 155 5 163
92 163 33 0 72 -7 88 -15z m170 -140 l0 -155 -40 0 -40 0 0 149 c0 159 0 159
53 160 l27 1 0 -155z m540 136 c0 -38 -11 -51 -46 -51 l-34 0 0 -119 c0 -109
-2 -120 -19 -126 -11 -3 -31 -3 -45 1 l-26 6 0 119 0 119 -35 0 c-32 0 -35 3
-35 28 0 16 3 32 7 35 3 4 57 7 120 7 105 0 113 -1 113 -19z"/>
<path d="M830 304 c-18 -47 -12 -132 10 -154 16 -16 25 -18 40 -10 17 9 20 21
20 88 0 47 -5 83 -12 90 -20 20 -48 14 -58 -14z"/>
<path d="M430 300 c0 -28 3 -31 28 -28 21 2 27 8 27 28 0 20 -6 26 -27 28 -25
3 -28 0 -28 -28z"/>
<path d="M430 175 c0 -40 17 -52 49 -35 25 13 28 55 5 64 -39 15 -54 7 -54
-29z"/>
</g>
</svg>
